<svg width="13" height="11" viewBox="0 0 13 11" fill="none" xmlns="http://www.w3.org/2000/svg">
<path fill-rule="evenodd" clip-rule="evenodd" d="M12.1292 10.3891C12.0617 10.0375 11.9361 9.69285 11.7546 9.3632C11.4687 8.84419 11.0498 8.37261 10.5217 7.97538C9.99354 7.57815 9.36655 7.26305 8.67651 7.04807C7.98647 6.83309 7.24689 6.72244 6.5 6.72244C5.75311 6.72244 5.01353 6.83309 4.32349 7.04807C3.63345 7.26305 3.00646 7.57815 2.47833 7.97538C1.9502 8.37261 1.53126 8.84419 1.24543 9.3632C1.06389 9.69285 0.938305 10.0375 0.870835 10.3891L12.1292 10.3891ZM12.949 10.3891C12.8766 9.95709 12.7277 9.53333 12.5052 9.12933C12.1786 8.53618 11.6998 7.99723 11.0962 7.54326C10.4926 7.08928 9.77606 6.72917 8.98744 6.48347C8.19883 6.23778 7.35359 6.11133 6.5 6.11133C5.64641 6.11133 4.80117 6.23778 4.01256 6.48347C3.22394 6.72917 2.50739 7.08928 1.90381 7.54326C1.30022 7.99723 0.821438 8.53618 0.494783 9.12933C0.272296 9.53333 0.123351 9.95709 0.0509809 10.3891C0.0170974 10.5914 0 10.7955 0 11.0002L13 11.0002C13 10.7955 12.9829 10.5914 12.949 10.3891Z" fill="#0F303F"/>
<path fill-rule="evenodd" clip-rule="evenodd" d="M6.5 4.2778C7.84619 4.2778 8.9375 3.45698 8.9375 2.44446C8.9375 1.43193 7.84619 0.611114 6.5 0.611114C5.15381 0.611114 4.0625 1.43193 4.0625 2.44446C4.0625 3.45698 5.15381 4.2778 6.5 4.2778ZM6.5 4.88891C8.29493 4.88891 9.75 3.79449 9.75 2.44446C9.75 1.09442 8.29493 0 6.5 0C4.70507 0 3.25 1.09442 3.25 2.44446C3.25 3.79449 4.70507 4.88891 6.5 4.88891Z" fill="#0F303F"/>
</svg>
