<svg width="14" height="14" viewBox="0 0 14 14" fill="none" xmlns="http://www.w3.org/2000/svg">
<g clip-path="url(#clip0_12_2777)">
<path d="M7 1.75C10.2345 1.75 12.9787 3.94343 14 7.00001C12.9787 10.0566 10.2345 12.25 7 12.25C3.76549 12.25 1.02128 10.0566 -1.90735e-06 7.00001C1.02128 3.94343 3.76549 1.75 7 1.75ZM7 10.5C8.93301 10.5 10.5 8.933 10.5 7.00001C10.5 5.067 8.93301 3.50001 7 3.50001C5.06699 3.50001 3.5 5.067 3.5 7.00001C3.5 8.93297 5.06699 10.5 7 10.5Z" fill="#B7C1C5"/>
<path d="M5.76209 5.76256C5.07867 6.44597 5.07867 7.55401 5.76209 8.23743C6.4455 8.92084 7.55354 8.92084 8.23695 8.23743C8.92037 7.55401 8.92037 6.44597 8.23695 5.76256C7.55354 5.07915 6.4455 5.07915 5.76209 5.76256Z" fill="#B7C1C5"/>
</g>
<defs>
<clipPath id="clip0_12_2777">
<rect width="14" height="14" fill="white" transform="matrix(-1 0 0 1 14 0)"/>
</clipPath>
</defs>
</svg>
