<svg width="129" height="12" viewBox="0 0 129 12" fill="none" xmlns="http://www.w3.org/2000/svg">
<path d="M10.4191 11.3849L9.4082 9.51816H2.74338L1.65907 11.3849H0L6.23273 0.707031L12.1027 11.3849H10.4191ZM6.15936 3.38473L3.19993 8.64117H8.92719L6.15936 3.38473Z" fill="#0F303F"/>
<path d="M20.6914 11.385V1.08105H22.3016V10.475H27.0424V11.385H20.6914Z" fill="#0F303F"/>
<path d="M35.917 11.385V1.08105H37.5271V10.475H42.2679V11.385H35.917Z" fill="#0F303F"/>
<path d="M51.1455 11.385V1.08105H58.699V2.03777H52.7557V4.48729H56.7994V5.41102H52.7557V10.4888H58.9639V11.3822H51.1455V11.385Z" fill="#0F303F"/>
<path d="M75.4693 11.5308C71.1646 11.5143 67.3125 9.90877 67.3125 6.46679C67.3125 3.23651 71.0668 0.918945 76.044 0.918945C76.309 0.918945 76.574 0.918945 76.8389 0.93544V1.89216C76.5495 1.87566 76.2601 1.85917 75.9747 1.85917C72.0777 1.87566 68.8778 3.51417 68.8778 6.46679C68.8778 9.38643 72.3182 10.6373 75.4203 10.6373C75.6364 10.6373 75.8524 10.6373 76.0685 10.6208V4.95749H72.7707V4.11349H77.5808V11.3988C76.8878 11.4813 76.1663 11.5308 75.4693 11.5308Z" fill="#0F303F"/>
<path d="M94.6932 8.90248L97.1227 11.385H95.3413L93.3439 9.29286C92.6958 9.47156 91.7541 9.61726 90.7921 9.61726C90.3111 9.61726 89.7812 9.58428 89.3246 9.52104V11.3877H87.7349V1.08105H90.572C95.5533 1.08105 97.5018 3.06047 97.5018 5.49349C97.5059 6.71138 96.8333 7.9925 94.6932 8.90248ZM90.89 1.97179H89.3246V8.59182C89.8546 8.70454 90.2867 8.75402 90.8655 8.75402C91.4688 8.75402 92.1903 8.68804 92.6224 8.54233L91.2528 7.16224L92.4797 6.64265L93.9228 8.11896C95.1253 7.63235 96.0139 6.73887 96.0139 5.61995C96.0139 2.99449 93.4662 1.97179 90.89 1.97179Z" fill="#0F303F"/>
<path d="M106.89 11.385V1.08105H108.479V11.385H106.89Z" fill="#0F303F"/>
<path d="M127.317 11.3849L126.306 9.51816H119.641L118.557 11.3849H116.897L123.13 0.707031L129 11.3849H127.317ZM123.057 3.38473L120.097 8.64117H125.825L123.057 3.38473Z" fill="#0F303F"/>
</svg>
